<mxfile host="app.diagrams.net" agent="Mozilla/5.0 (Windows NT 10.0; Win64; x64) AppleWebKit/537.36 (KHTML, like Gecko) Chrome/131.0.0.0 Safari/537.36" version="25.0.3">
  <diagram name="Página-1" id="T0Aa-xzfGWM8AjUR7KLx">
    <mxGraphModel dx="825" dy="424" grid="1" gridSize="10" guides="1" tooltips="1" connect="1" arrows="1" fold="1" page="1" pageScale="1" pageWidth="827" pageHeight="1169" math="0" shadow="0">
      <root>
        <mxCell id="0" />
        <mxCell id="1" parent="0" />
        <mxCell id="lVhLBTLFJoJ6iLnMIv4T-1" value="" style="rounded=0;whiteSpace=wrap;html=1;" parent="1" vertex="1">
          <mxGeometry x="110" y="40" width="300" height="960" as="geometry" />
        </mxCell>
        <mxCell id="lVhLBTLFJoJ6iLnMIv4T-2" value="cadastro de suspeito" style="text;html=1;align=center;verticalAlign=middle;whiteSpace=wrap;rounded=0;" parent="1" vertex="1">
          <mxGeometry x="290" y="40" width="120" height="40" as="geometry" />
        </mxCell>
        <mxCell id="lVhLBTLFJoJ6iLnMIv4T-5" value="" style="endArrow=none;html=1;rounded=0;entryX=1.003;entryY=0.081;entryDx=0;entryDy=0;entryPerimeter=0;exitX=0.001;exitY=0.082;exitDx=0;exitDy=0;exitPerimeter=0;" parent="1" edge="1">
          <mxGeometry width="50" height="50" relative="1" as="geometry">
            <mxPoint x="109.99999999999994" y="80.80000000000003" as="sourcePoint" />
            <mxPoint x="410.60000000000014" y="79.99999999999996" as="targetPoint" />
          </mxGeometry>
        </mxCell>
        <mxCell id="lVhLBTLFJoJ6iLnMIv4T-7" value="" style="shape=singleArrow;direction=west;whiteSpace=wrap;html=1;" parent="1" vertex="1">
          <mxGeometry x="120" y="55" width="20" height="10" as="geometry" />
        </mxCell>
        <mxCell id="lVhLBTLFJoJ6iLnMIv4T-8" value="Nome" style="text;html=1;align=center;verticalAlign=middle;whiteSpace=wrap;rounded=0;" parent="1" vertex="1">
          <mxGeometry x="120" y="310" width="40" height="30" as="geometry" />
        </mxCell>
        <mxCell id="lVhLBTLFJoJ6iLnMIv4T-10" value="" style="rounded=0;whiteSpace=wrap;html=1;" parent="1" vertex="1">
          <mxGeometry x="120" y="410" width="280" height="30" as="geometry" />
        </mxCell>
        <mxCell id="lVhLBTLFJoJ6iLnMIv4T-11" value="Alcunha" style="text;html=1;align=center;verticalAlign=middle;whiteSpace=wrap;rounded=0;" parent="1" vertex="1">
          <mxGeometry x="120" y="380" width="50" height="30" as="geometry" />
        </mxCell>
        <mxCell id="lVhLBTLFJoJ6iLnMIv4T-12" value="" style="rounded=0;whiteSpace=wrap;html=1;" parent="1" vertex="1">
          <mxGeometry x="120" y="90" width="280" height="200" as="geometry" />
        </mxCell>
        <mxCell id="lVhLBTLFJoJ6iLnMIv4T-16" value="" style="whiteSpace=wrap;html=1;aspect=fixed;" parent="1" vertex="1">
          <mxGeometry x="310" y="100" width="80" height="80" as="geometry" />
        </mxCell>
        <mxCell id="lVhLBTLFJoJ6iLnMIv4T-17" value="" style="rounded=0;whiteSpace=wrap;html=1;" parent="1" vertex="1">
          <mxGeometry x="120" y="340" width="280" height="30" as="geometry" />
        </mxCell>
        <mxCell id="lVhLBTLFJoJ6iLnMIv4T-18" value="CPF" style="text;html=1;align=center;verticalAlign=middle;whiteSpace=wrap;rounded=0;" parent="1" vertex="1">
          <mxGeometry x="120" y="450" width="30" height="30" as="geometry" />
        </mxCell>
        <mxCell id="lVhLBTLFJoJ6iLnMIv4T-19" value="" style="rounded=0;whiteSpace=wrap;html=1;" parent="1" vertex="1">
          <mxGeometry x="120" y="480" width="280" height="30" as="geometry" />
        </mxCell>
        <mxCell id="lVhLBTLFJoJ6iLnMIv4T-20" value="Data de nascimento" style="text;html=1;align=center;verticalAlign=middle;whiteSpace=wrap;rounded=0;" parent="1" vertex="1">
          <mxGeometry x="120" y="520" width="110" height="30" as="geometry" />
        </mxCell>
        <mxCell id="lVhLBTLFJoJ6iLnMIv4T-21" value="" style="rounded=0;whiteSpace=wrap;html=1;" parent="1" vertex="1">
          <mxGeometry x="120" y="550" width="280" height="30" as="geometry" />
        </mxCell>
        <mxCell id="lVhLBTLFJoJ6iLnMIv4T-22" value="Nome da mãe" style="text;html=1;align=center;verticalAlign=middle;whiteSpace=wrap;rounded=0;" parent="1" vertex="1">
          <mxGeometry x="120" y="590" width="80" height="30" as="geometry" />
        </mxCell>
        <mxCell id="lVhLBTLFJoJ6iLnMIv4T-23" value="" style="rounded=0;whiteSpace=wrap;html=1;" parent="1" vertex="1">
          <mxGeometry x="120" y="620" width="280" height="30" as="geometry" />
        </mxCell>
        <mxCell id="lVhLBTLFJoJ6iLnMIv4T-24" value="Nome da pai" style="text;html=1;align=center;verticalAlign=middle;whiteSpace=wrap;rounded=0;" parent="1" vertex="1">
          <mxGeometry x="120" y="660" width="80" height="30" as="geometry" />
        </mxCell>
        <mxCell id="lVhLBTLFJoJ6iLnMIv4T-25" value="" style="rounded=0;whiteSpace=wrap;html=1;" parent="1" vertex="1">
          <mxGeometry x="120" y="690" width="280" height="30" as="geometry" />
        </mxCell>
        <mxCell id="lVhLBTLFJoJ6iLnMIv4T-26" value="Organização criminosa" style="text;html=1;align=center;verticalAlign=middle;whiteSpace=wrap;rounded=0;" parent="1" vertex="1">
          <mxGeometry x="120" y="730" width="130" height="30" as="geometry" />
        </mxCell>
        <mxCell id="lVhLBTLFJoJ6iLnMIv4T-27" value="" style="rounded=0;whiteSpace=wrap;html=1;" parent="1" vertex="1">
          <mxGeometry x="120" y="760" width="280" height="30" as="geometry" />
        </mxCell>
        <mxCell id="lVhLBTLFJoJ6iLnMIv4T-28" value="Crime&amp;nbsp;" style="text;html=1;align=center;verticalAlign=middle;whiteSpace=wrap;rounded=0;" parent="1" vertex="1">
          <mxGeometry x="120" y="800" width="40" height="30" as="geometry" />
        </mxCell>
        <mxCell id="lVhLBTLFJoJ6iLnMIv4T-29" value="" style="rounded=0;whiteSpace=wrap;html=1;" parent="1" vertex="1">
          <mxGeometry x="120" y="830" width="280" height="110" as="geometry" />
        </mxCell>
        <mxCell id="lVhLBTLFJoJ6iLnMIv4T-30" value="Próximo" style="rounded=0;whiteSpace=wrap;html=1;" parent="1" vertex="1">
          <mxGeometry x="310" y="960" width="90" height="30" as="geometry" />
        </mxCell>
        <mxCell id="lVhLBTLFJoJ6iLnMIv4T-31" value="Resetar" style="rounded=0;whiteSpace=wrap;html=1;" parent="1" vertex="1">
          <mxGeometry x="210" y="960" width="90" height="30" as="geometry" />
        </mxCell>
        <mxCell id="lVhLBTLFJoJ6iLnMIv4T-32" value="" style="rounded=0;whiteSpace=wrap;html=1;" parent="1" vertex="1">
          <mxGeometry x="470" y="40" width="300" height="470" as="geometry" />
        </mxCell>
        <mxCell id="lVhLBTLFJoJ6iLnMIv4T-33" value="" style="endArrow=none;html=1;rounded=0;entryX=0.997;entryY=0.089;entryDx=0;entryDy=0;exitX=0.007;exitY=0.089;exitDx=0;exitDy=0;exitPerimeter=0;entryPerimeter=0;" parent="1" source="lVhLBTLFJoJ6iLnMIv4T-32" target="lVhLBTLFJoJ6iLnMIv4T-32" edge="1">
          <mxGeometry width="50" height="50" relative="1" as="geometry">
            <mxPoint x="470" y="78" as="sourcePoint" />
            <mxPoint x="720" y="80" as="targetPoint" />
          </mxGeometry>
        </mxCell>
        <mxCell id="lVhLBTLFJoJ6iLnMIv4T-34" value="" style="shape=singleArrow;direction=west;whiteSpace=wrap;html=1;" parent="1" vertex="1">
          <mxGeometry x="480" y="55" width="20" height="10" as="geometry" />
        </mxCell>
        <mxCell id="lVhLBTLFJoJ6iLnMIv4T-35" value="cadastro de tatuagens/cicatrizes/marcas de nascença" style="text;html=1;align=center;verticalAlign=middle;whiteSpace=wrap;rounded=0;" parent="1" vertex="1">
          <mxGeometry x="550" y="40" width="220" height="40" as="geometry" />
        </mxCell>
        <mxCell id="lVhLBTLFJoJ6iLnMIv4T-37" value="Tatuagens" style="text;html=1;align=center;verticalAlign=middle;whiteSpace=wrap;rounded=0;" parent="1" vertex="1">
          <mxGeometry x="480" y="90" width="60" height="30" as="geometry" />
        </mxCell>
        <mxCell id="lVhLBTLFJoJ6iLnMIv4T-38" value="" style="rounded=0;whiteSpace=wrap;html=1;" parent="1" vertex="1">
          <mxGeometry x="480" y="120" width="280" height="80" as="geometry" />
        </mxCell>
        <mxCell id="lVhLBTLFJoJ6iLnMIv4T-40" value="Cicatrizes" style="text;html=1;align=center;verticalAlign=middle;whiteSpace=wrap;rounded=0;" parent="1" vertex="1">
          <mxGeometry x="480" y="350" width="60" height="30" as="geometry" />
        </mxCell>
        <mxCell id="lVhLBTLFJoJ6iLnMIv4T-41" value="Marcas de nascença" style="text;html=1;align=center;verticalAlign=middle;whiteSpace=wrap;rounded=0;" parent="1" vertex="1">
          <mxGeometry x="480" y="390" width="60" height="30" as="geometry" />
        </mxCell>
        <mxCell id="lVhLBTLFJoJ6iLnMIv4T-42" value="" style="rounded=0;whiteSpace=wrap;html=1;" parent="1" vertex="1">
          <mxGeometry x="480" y="210" width="280" height="80" as="geometry" />
        </mxCell>
        <mxCell id="lVhLBTLFJoJ6iLnMIv4T-43" value="" style="whiteSpace=wrap;html=1;aspect=fixed;" parent="1" vertex="1">
          <mxGeometry x="690" y="220" width="60" height="60" as="geometry" />
        </mxCell>
        <mxCell id="lVhLBTLFJoJ6iLnMIv4T-44" value="" style="verticalLabelPosition=bottom;verticalAlign=top;html=1;shape=mxgraph.flowchart.summing_function;" parent="1" vertex="1">
          <mxGeometry x="730" y="300" width="30" height="30" as="geometry" />
        </mxCell>
        <mxCell id="lVhLBTLFJoJ6iLnMIv4T-45" value="" style="html=1;shadow=0;dashed=0;align=center;verticalAlign=middle;shape=mxgraph.arrows2.arrow;dy=0.6;dx=40;notch=0;" parent="1" vertex="1">
          <mxGeometry x="550" y="355" width="20" height="20" as="geometry" />
        </mxCell>
        <mxCell id="lVhLBTLFJoJ6iLnMIv4T-46" value="" style="html=1;shadow=0;dashed=0;align=center;verticalAlign=middle;shape=mxgraph.arrows2.arrow;dy=0.6;dx=40;notch=0;" parent="1" vertex="1">
          <mxGeometry x="550" y="395" width="20" height="20" as="geometry" />
        </mxCell>
        <mxCell id="POWUhBCDT8RYHVwwRuCh-1" value="" style="rounded=0;whiteSpace=wrap;html=1;" parent="1" vertex="1">
          <mxGeometry x="827" y="40" width="333" height="580" as="geometry" />
        </mxCell>
        <mxCell id="POWUhBCDT8RYHVwwRuCh-2" value="" style="rounded=0;whiteSpace=wrap;html=1;" parent="1" vertex="1">
          <mxGeometry x="827" y="40" width="333" height="40" as="geometry" />
        </mxCell>
        <mxCell id="POWUhBCDT8RYHVwwRuCh-3" value="" style="shape=singleArrow;direction=west;whiteSpace=wrap;html=1;" parent="1" vertex="1">
          <mxGeometry x="840" y="55" width="20" height="10" as="geometry" />
        </mxCell>
        <mxCell id="POWUhBCDT8RYHVwwRuCh-4" value="cadastro de endereço" style="text;html=1;align=center;verticalAlign=middle;whiteSpace=wrap;rounded=0;" parent="1" vertex="1">
          <mxGeometry x="1040" y="40" width="120" height="40" as="geometry" />
        </mxCell>
        <mxCell id="POWUhBCDT8RYHVwwRuCh-5" value="" style="rounded=0;whiteSpace=wrap;html=1;" parent="1" vertex="1">
          <mxGeometry x="840" y="120" width="310" height="30" as="geometry" />
        </mxCell>
        <mxCell id="POWUhBCDT8RYHVwwRuCh-6" value="Logradouro" style="text;html=1;align=center;verticalAlign=middle;whiteSpace=wrap;rounded=0;" parent="1" vertex="1">
          <mxGeometry x="840" y="90" width="60" height="30" as="geometry" />
        </mxCell>
        <mxCell id="POWUhBCDT8RYHVwwRuCh-8" value="Bairro" style="text;html=1;align=center;verticalAlign=middle;whiteSpace=wrap;rounded=0;" parent="1" vertex="1">
          <mxGeometry x="840" y="160" width="40" height="30" as="geometry" />
        </mxCell>
        <mxCell id="POWUhBCDT8RYHVwwRuCh-9" value="" style="rounded=0;whiteSpace=wrap;html=1;" parent="1" vertex="1">
          <mxGeometry x="840" y="190" width="310" height="30" as="geometry" />
        </mxCell>
        <mxCell id="POWUhBCDT8RYHVwwRuCh-10" value="" style="rounded=0;whiteSpace=wrap;html=1;" parent="1" vertex="1">
          <mxGeometry x="838.5" y="260" width="310" height="30" as="geometry" />
        </mxCell>
        <mxCell id="POWUhBCDT8RYHVwwRuCh-11" value="Cidade" style="text;html=1;align=center;verticalAlign=middle;whiteSpace=wrap;rounded=0;" parent="1" vertex="1">
          <mxGeometry x="840" y="230" width="40" height="30" as="geometry" />
        </mxCell>
        <mxCell id="POWUhBCDT8RYHVwwRuCh-12" value="" style="rounded=0;whiteSpace=wrap;html=1;" parent="1" vertex="1">
          <mxGeometry x="838.5" y="310" width="311.5" height="170" as="geometry" />
        </mxCell>
        <mxCell id="POWUhBCDT8RYHVwwRuCh-13" value="" style="whiteSpace=wrap;html=1;aspect=fixed;" parent="1" vertex="1">
          <mxGeometry x="1060" y="325" width="80" height="80" as="geometry" />
        </mxCell>
        <mxCell id="POWUhBCDT8RYHVwwRuCh-14" value="Próximo" style="rounded=0;whiteSpace=wrap;html=1;" parent="1" vertex="1">
          <mxGeometry x="670" y="470" width="90" height="30" as="geometry" />
        </mxCell>
        <mxCell id="POWUhBCDT8RYHVwwRuCh-15" value="Resetar" style="rounded=0;whiteSpace=wrap;html=1;" parent="1" vertex="1">
          <mxGeometry x="570" y="470" width="90" height="30" as="geometry" />
        </mxCell>
        <mxCell id="POWUhBCDT8RYHVwwRuCh-16" value="Próximo" style="rounded=0;whiteSpace=wrap;html=1;" parent="1" vertex="1">
          <mxGeometry x="1058.5" y="580" width="90" height="30" as="geometry" />
        </mxCell>
        <mxCell id="POWUhBCDT8RYHVwwRuCh-17" value="Resetar" style="rounded=0;whiteSpace=wrap;html=1;" parent="1" vertex="1">
          <mxGeometry x="958.5" y="580" width="90" height="30" as="geometry" />
        </mxCell>
        <mxCell id="POWUhBCDT8RYHVwwRuCh-18" value="descriçao" style="text;html=1;align=center;verticalAlign=middle;whiteSpace=wrap;rounded=0;" parent="1" vertex="1">
          <mxGeometry x="700" y="120" width="60" height="30" as="geometry" />
        </mxCell>
        <mxCell id="POWUhBCDT8RYHVwwRuCh-19" value="" style="rounded=0;whiteSpace=wrap;html=1;" parent="1" vertex="1">
          <mxGeometry x="1200" y="40" width="330" height="580" as="geometry" />
        </mxCell>
        <mxCell id="POWUhBCDT8RYHVwwRuCh-20" value="" style="rounded=0;whiteSpace=wrap;html=1;" parent="1" vertex="1">
          <mxGeometry x="1200" y="40" width="330" height="40" as="geometry" />
        </mxCell>
        <mxCell id="POWUhBCDT8RYHVwwRuCh-21" value="" style="shape=singleArrow;direction=west;whiteSpace=wrap;html=1;" parent="1" vertex="1">
          <mxGeometry x="1210" y="55" width="20" height="10" as="geometry" />
        </mxCell>
        <mxCell id="POWUhBCDT8RYHVwwRuCh-22" value="Cadastro de veiculo" style="text;html=1;align=center;verticalAlign=middle;whiteSpace=wrap;rounded=0;" parent="1" vertex="1">
          <mxGeometry x="1420" y="40" width="110" height="40" as="geometry" />
        </mxCell>
        <mxCell id="POWUhBCDT8RYHVwwRuCh-23" value="" style="rounded=0;whiteSpace=wrap;html=1;" parent="1" vertex="1">
          <mxGeometry x="1210" y="120" width="310" height="30" as="geometry" />
        </mxCell>
        <mxCell id="POWUhBCDT8RYHVwwRuCh-24" value="Placa" style="text;html=1;align=center;verticalAlign=middle;whiteSpace=wrap;rounded=0;" parent="1" vertex="1">
          <mxGeometry x="1211" y="90" width="39" height="30" as="geometry" />
        </mxCell>
        <mxCell id="POWUhBCDT8RYHVwwRuCh-25" value="" style="rounded=0;whiteSpace=wrap;html=1;" parent="1" vertex="1">
          <mxGeometry x="1211" y="190" width="310" height="30" as="geometry" />
        </mxCell>
        <mxCell id="POWUhBCDT8RYHVwwRuCh-26" value="Condutores" style="text;html=1;align=center;verticalAlign=middle;whiteSpace=wrap;rounded=0;" parent="1" vertex="1">
          <mxGeometry x="1212" y="160" width="68" height="30" as="geometry" />
        </mxCell>
        <mxCell id="POWUhBCDT8RYHVwwRuCh-27" value="" style="rounded=0;whiteSpace=wrap;html=1;" parent="1" vertex="1">
          <mxGeometry x="1210" y="260" width="310" height="100" as="geometry" />
        </mxCell>
        <mxCell id="POWUhBCDT8RYHVwwRuCh-28" value="Veiculo" style="text;html=1;align=center;verticalAlign=middle;whiteSpace=wrap;rounded=0;" parent="1" vertex="1">
          <mxGeometry x="1211" y="230" width="49" height="30" as="geometry" />
        </mxCell>
        <mxCell id="POWUhBCDT8RYHVwwRuCh-29" value="descriçao veiculo" style="text;html=1;align=center;verticalAlign=middle;whiteSpace=wrap;rounded=0;" parent="1" vertex="1">
          <mxGeometry x="1460" y="260" width="60" height="30" as="geometry" />
        </mxCell>
        <mxCell id="POWUhBCDT8RYHVwwRuCh-30" value="" style="rounded=0;whiteSpace=wrap;html=1;" parent="1" vertex="1">
          <mxGeometry x="1210" y="370" width="310" height="170" as="geometry" />
        </mxCell>
        <mxCell id="POWUhBCDT8RYHVwwRuCh-31" value="" style="whiteSpace=wrap;html=1;aspect=fixed;" parent="1" vertex="1">
          <mxGeometry x="1431.5" y="380" width="80" height="80" as="geometry" />
        </mxCell>
        <mxCell id="POWUhBCDT8RYHVwwRuCh-32" value="Finalizar" style="rounded=0;whiteSpace=wrap;html=1;" parent="1" vertex="1">
          <mxGeometry x="1431" y="580" width="90" height="30" as="geometry" />
        </mxCell>
        <mxCell id="POWUhBCDT8RYHVwwRuCh-33" value="Resetar" style="rounded=0;whiteSpace=wrap;html=1;" parent="1" vertex="1">
          <mxGeometry x="1331" y="580" width="90" height="30" as="geometry" />
        </mxCell>
        <mxCell id="POWUhBCDT8RYHVwwRuCh-34" value="" style="rounded=0;whiteSpace=wrap;html=1;" parent="1" vertex="1">
          <mxGeometry x="110" y="1050" width="300" height="440" as="geometry" />
        </mxCell>
        <mxCell id="POWUhBCDT8RYHVwwRuCh-35" value="" style="rounded=0;whiteSpace=wrap;html=1;" parent="1" vertex="1">
          <mxGeometry x="110" y="1050" width="300" height="40" as="geometry" />
        </mxCell>
        <mxCell id="POWUhBCDT8RYHVwwRuCh-36" value="" style="shape=singleArrow;direction=west;whiteSpace=wrap;html=1;" parent="1" vertex="1">
          <mxGeometry x="120" y="1065" width="20" height="10" as="geometry" />
        </mxCell>
        <mxCell id="POWUhBCDT8RYHVwwRuCh-37" value="Pesquisar" style="text;html=1;align=center;verticalAlign=middle;whiteSpace=wrap;rounded=0;" parent="1" vertex="1">
          <mxGeometry x="350" y="1050" width="60" height="40" as="geometry" />
        </mxCell>
        <mxCell id="POWUhBCDT8RYHVwwRuCh-38" value="Nome" style="text;html=1;align=center;verticalAlign=middle;whiteSpace=wrap;rounded=0;" parent="1" vertex="1">
          <mxGeometry x="120" y="1100" width="40" height="30" as="geometry" />
        </mxCell>
        <mxCell id="POWUhBCDT8RYHVwwRuCh-39" value="" style="rounded=0;whiteSpace=wrap;html=1;" parent="1" vertex="1">
          <mxGeometry x="120" y="1200" width="280" height="30" as="geometry" />
        </mxCell>
        <mxCell id="POWUhBCDT8RYHVwwRuCh-40" value="Alcunha" style="text;html=1;align=center;verticalAlign=middle;whiteSpace=wrap;rounded=0;" parent="1" vertex="1">
          <mxGeometry x="120" y="1170" width="50" height="30" as="geometry" />
        </mxCell>
        <mxCell id="POWUhBCDT8RYHVwwRuCh-41" value="" style="rounded=0;whiteSpace=wrap;html=1;" parent="1" vertex="1">
          <mxGeometry x="120" y="1130" width="280" height="30" as="geometry" />
        </mxCell>
        <mxCell id="POWUhBCDT8RYHVwwRuCh-42" value="" style="rounded=0;whiteSpace=wrap;html=1;" parent="1" vertex="1">
          <mxGeometry x="120" y="1270" width="280" height="30" as="geometry" />
        </mxCell>
        <mxCell id="POWUhBCDT8RYHVwwRuCh-43" value="Organização criminosa" style="text;html=1;align=center;verticalAlign=middle;whiteSpace=wrap;rounded=0;" parent="1" vertex="1">
          <mxGeometry x="120" y="1240" width="130" height="30" as="geometry" />
        </mxCell>
        <mxCell id="POWUhBCDT8RYHVwwRuCh-44" value="Pesquisar" style="rounded=0;whiteSpace=wrap;html=1;" parent="1" vertex="1">
          <mxGeometry x="310" y="1450" width="90" height="30" as="geometry" />
        </mxCell>
        <mxCell id="POWUhBCDT8RYHVwwRuCh-45" value="" style="rounded=0;whiteSpace=wrap;html=1;" parent="1" vertex="1">
          <mxGeometry x="440" y="1050" width="300" height="610" as="geometry" />
        </mxCell>
        <mxCell id="POWUhBCDT8RYHVwwRuCh-46" value="" style="rounded=0;whiteSpace=wrap;html=1;" parent="1" vertex="1">
          <mxGeometry x="440" y="1050" width="300" height="40" as="geometry" />
        </mxCell>
        <mxCell id="POWUhBCDT8RYHVwwRuCh-47" value="" style="shape=singleArrow;direction=west;whiteSpace=wrap;html=1;" parent="1" vertex="1">
          <mxGeometry x="450" y="1065" width="20" height="10" as="geometry" />
        </mxCell>
        <mxCell id="POWUhBCDT8RYHVwwRuCh-48" value="Cadastro de usuario" style="text;html=1;align=center;verticalAlign=middle;whiteSpace=wrap;rounded=0;" parent="1" vertex="1">
          <mxGeometry x="620" y="1050" width="120" height="40" as="geometry" />
        </mxCell>
        <mxCell id="POWUhBCDT8RYHVwwRuCh-49" value="Nome" style="text;html=1;align=center;verticalAlign=middle;whiteSpace=wrap;rounded=0;" parent="1" vertex="1">
          <mxGeometry x="450" y="1100" width="40" height="30" as="geometry" />
        </mxCell>
        <mxCell id="POWUhBCDT8RYHVwwRuCh-50" value="" style="rounded=0;whiteSpace=wrap;html=1;" parent="1" vertex="1">
          <mxGeometry x="450" y="1200" width="280" height="30" as="geometry" />
        </mxCell>
        <mxCell id="POWUhBCDT8RYHVwwRuCh-51" value="CPF" style="text;html=1;align=center;verticalAlign=middle;whiteSpace=wrap;rounded=0;" parent="1" vertex="1">
          <mxGeometry x="450" y="1170" width="30" height="30" as="geometry" />
        </mxCell>
        <mxCell id="POWUhBCDT8RYHVwwRuCh-52" value="" style="rounded=0;whiteSpace=wrap;html=1;" parent="1" vertex="1">
          <mxGeometry x="450" y="1130" width="280" height="30" as="geometry" />
        </mxCell>
        <mxCell id="POWUhBCDT8RYHVwwRuCh-53" value="" style="rounded=0;whiteSpace=wrap;html=1;" parent="1" vertex="1">
          <mxGeometry x="450" y="1270" width="280" height="30" as="geometry" />
        </mxCell>
        <mxCell id="POWUhBCDT8RYHVwwRuCh-54" value="E-mail" style="text;html=1;align=center;verticalAlign=middle;whiteSpace=wrap;rounded=0;" parent="1" vertex="1">
          <mxGeometry x="450" y="1240" width="40" height="30" as="geometry" />
        </mxCell>
        <mxCell id="POWUhBCDT8RYHVwwRuCh-55" value="Confirmar" style="rounded=0;whiteSpace=wrap;html=1;" parent="1" vertex="1">
          <mxGeometry x="640" y="1620" width="90" height="30" as="geometry" />
        </mxCell>
        <mxCell id="POWUhBCDT8RYHVwwRuCh-56" value="Intituição" style="text;html=1;align=center;verticalAlign=middle;whiteSpace=wrap;rounded=0;" parent="1" vertex="1">
          <mxGeometry x="450" y="1310" width="50" height="30" as="geometry" />
        </mxCell>
        <mxCell id="POWUhBCDT8RYHVwwRuCh-57" value="" style="rounded=0;whiteSpace=wrap;html=1;" parent="1" vertex="1">
          <mxGeometry x="450" y="1340" width="280" height="30" as="geometry" />
        </mxCell>
        <mxCell id="POWUhBCDT8RYHVwwRuCh-58" value="Senha" style="text;html=1;align=center;verticalAlign=middle;whiteSpace=wrap;rounded=0;" parent="1" vertex="1">
          <mxGeometry x="450" y="1380" width="40" height="30" as="geometry" />
        </mxCell>
        <mxCell id="POWUhBCDT8RYHVwwRuCh-59" value="" style="rounded=0;whiteSpace=wrap;html=1;" parent="1" vertex="1">
          <mxGeometry x="450" y="1410" width="280" height="30" as="geometry" />
        </mxCell>
        <mxCell id="POWUhBCDT8RYHVwwRuCh-60" value="Patente" style="text;html=1;align=center;verticalAlign=middle;whiteSpace=wrap;rounded=0;" parent="1" vertex="1">
          <mxGeometry x="450" y="1450" width="40" height="30" as="geometry" />
        </mxCell>
        <mxCell id="POWUhBCDT8RYHVwwRuCh-61" value="" style="rounded=0;whiteSpace=wrap;html=1;" parent="1" vertex="1">
          <mxGeometry x="450" y="1480" width="280" height="30" as="geometry" />
        </mxCell>
        <mxCell id="POWUhBCDT8RYHVwwRuCh-62" value="Nível de acesso" style="text;html=1;align=center;verticalAlign=middle;whiteSpace=wrap;rounded=0;" parent="1" vertex="1">
          <mxGeometry x="450" y="1520" width="90" height="30" as="geometry" />
        </mxCell>
        <mxCell id="POWUhBCDT8RYHVwwRuCh-63" value="" style="ellipse;whiteSpace=wrap;html=1;aspect=fixed;" parent="1" vertex="1">
          <mxGeometry x="455" y="1550" width="10" height="10" as="geometry" />
        </mxCell>
        <mxCell id="POWUhBCDT8RYHVwwRuCh-65" value="1" style="text;html=1;align=center;verticalAlign=middle;whiteSpace=wrap;rounded=0;" parent="1" vertex="1">
          <mxGeometry x="470" y="1550" width="10" height="10" as="geometry" />
        </mxCell>
        <mxCell id="POWUhBCDT8RYHVwwRuCh-69" value="" style="ellipse;whiteSpace=wrap;html=1;aspect=fixed;" parent="1" vertex="1">
          <mxGeometry x="490" y="1550" width="10" height="10" as="geometry" />
        </mxCell>
        <mxCell id="POWUhBCDT8RYHVwwRuCh-70" value="2" style="text;html=1;align=center;verticalAlign=middle;whiteSpace=wrap;rounded=0;" parent="1" vertex="1">
          <mxGeometry x="510" y="1550" width="5" height="10" as="geometry" />
        </mxCell>
        <mxCell id="POWUhBCDT8RYHVwwRuCh-71" value="" style="ellipse;whiteSpace=wrap;html=1;aspect=fixed;" parent="1" vertex="1">
          <mxGeometry x="525" y="1550" width="10" height="10" as="geometry" />
        </mxCell>
        <mxCell id="POWUhBCDT8RYHVwwRuCh-72" value="3" style="text;html=1;align=center;verticalAlign=middle;whiteSpace=wrap;rounded=0;" parent="1" vertex="1">
          <mxGeometry x="540" y="1550" width="10" height="10" as="geometry" />
        </mxCell>
        <mxCell id="lkIyx2rpp1lNwBIPfXFg-19" value="" style="rounded=0;whiteSpace=wrap;html=1;" vertex="1" parent="1">
          <mxGeometry x="140" y="1730" width="350" height="430" as="geometry" />
        </mxCell>
        <mxCell id="lkIyx2rpp1lNwBIPfXFg-20" value="Nome" style="text;html=1;align=center;verticalAlign=middle;whiteSpace=wrap;rounded=0;" vertex="1" parent="1">
          <mxGeometry x="160" y="1820" width="40" height="30" as="geometry" />
        </mxCell>
        <mxCell id="lkIyx2rpp1lNwBIPfXFg-21" value="" style="rounded=0;whiteSpace=wrap;html=1;" vertex="1" parent="1">
          <mxGeometry x="160" y="1940" width="280" height="30" as="geometry" />
        </mxCell>
        <mxCell id="lkIyx2rpp1lNwBIPfXFg-22" value="Alcunha" style="text;html=1;align=center;verticalAlign=middle;whiteSpace=wrap;rounded=0;" vertex="1" parent="1">
          <mxGeometry x="160" y="1910" width="50" height="30" as="geometry" />
        </mxCell>
        <mxCell id="lkIyx2rpp1lNwBIPfXFg-23" value="" style="rounded=0;whiteSpace=wrap;html=1;" vertex="1" parent="1">
          <mxGeometry x="160" y="1860" width="280" height="30" as="geometry" />
        </mxCell>
        <mxCell id="lkIyx2rpp1lNwBIPfXFg-24" value="" style="rounded=0;whiteSpace=wrap;html=1;" vertex="1" parent="1">
          <mxGeometry x="160" y="2020" width="280" height="30" as="geometry" />
        </mxCell>
        <mxCell id="lkIyx2rpp1lNwBIPfXFg-25" value="Organização criminosa" style="text;html=1;align=center;verticalAlign=middle;whiteSpace=wrap;rounded=0;" vertex="1" parent="1">
          <mxGeometry x="160" y="1990" width="130" height="30" as="geometry" />
        </mxCell>
        <mxCell id="lkIyx2rpp1lNwBIPfXFg-26" value="&lt;font style=&quot;font-size: 20px;&quot;&gt;Procurar&lt;/font&gt;" style="text;html=1;align=center;verticalAlign=middle;whiteSpace=wrap;rounded=0;" vertex="1" parent="1">
          <mxGeometry x="160" y="1754" width="80" height="26" as="geometry" />
        </mxCell>
        <mxCell id="lkIyx2rpp1lNwBIPfXFg-27" value="Procurar" style="rounded=0;whiteSpace=wrap;html=1;" vertex="1" parent="1">
          <mxGeometry x="160" y="2080" width="90" height="30" as="geometry" />
        </mxCell>
        <mxCell id="lkIyx2rpp1lNwBIPfXFg-29" value="" style="rounded=0;whiteSpace=wrap;html=1;" vertex="1" parent="1">
          <mxGeometry x="535" y="1730" width="355" height="650" as="geometry" />
        </mxCell>
        <mxCell id="lkIyx2rpp1lNwBIPfXFg-30" value="&lt;font style=&quot;font-size: 20px;&quot;&gt;Cadastro de usuario&lt;/font&gt;" style="text;html=1;align=center;verticalAlign=middle;whiteSpace=wrap;rounded=0;" vertex="1" parent="1">
          <mxGeometry x="545" y="1740" width="195" height="40" as="geometry" />
        </mxCell>
        <mxCell id="lkIyx2rpp1lNwBIPfXFg-31" value="Nome" style="text;html=1;align=center;verticalAlign=middle;whiteSpace=wrap;rounded=0;" vertex="1" parent="1">
          <mxGeometry x="550" y="1790" width="40" height="30" as="geometry" />
        </mxCell>
        <mxCell id="lkIyx2rpp1lNwBIPfXFg-32" value="" style="rounded=0;whiteSpace=wrap;html=1;" vertex="1" parent="1">
          <mxGeometry x="550" y="1890" width="280" height="30" as="geometry" />
        </mxCell>
        <mxCell id="lkIyx2rpp1lNwBIPfXFg-33" value="CPF" style="text;html=1;align=center;verticalAlign=middle;whiteSpace=wrap;rounded=0;" vertex="1" parent="1">
          <mxGeometry x="550" y="1860" width="30" height="30" as="geometry" />
        </mxCell>
        <mxCell id="lkIyx2rpp1lNwBIPfXFg-34" value="" style="rounded=0;whiteSpace=wrap;html=1;" vertex="1" parent="1">
          <mxGeometry x="550" y="1820" width="280" height="30" as="geometry" />
        </mxCell>
        <mxCell id="lkIyx2rpp1lNwBIPfXFg-35" value="" style="rounded=0;whiteSpace=wrap;html=1;" vertex="1" parent="1">
          <mxGeometry x="550" y="1960" width="280" height="30" as="geometry" />
        </mxCell>
        <mxCell id="lkIyx2rpp1lNwBIPfXFg-36" value="E-mail" style="text;html=1;align=center;verticalAlign=middle;whiteSpace=wrap;rounded=0;" vertex="1" parent="1">
          <mxGeometry x="550" y="1930" width="40" height="30" as="geometry" />
        </mxCell>
        <mxCell id="lkIyx2rpp1lNwBIPfXFg-37" value="Intituição" style="text;html=1;align=center;verticalAlign=middle;whiteSpace=wrap;rounded=0;" vertex="1" parent="1">
          <mxGeometry x="550" y="2000" width="50" height="30" as="geometry" />
        </mxCell>
        <mxCell id="lkIyx2rpp1lNwBIPfXFg-38" value="" style="rounded=0;whiteSpace=wrap;html=1;" vertex="1" parent="1">
          <mxGeometry x="550" y="2030" width="280" height="30" as="geometry" />
        </mxCell>
        <mxCell id="lkIyx2rpp1lNwBIPfXFg-39" value="Senha" style="text;html=1;align=center;verticalAlign=middle;whiteSpace=wrap;rounded=0;" vertex="1" parent="1">
          <mxGeometry x="550" y="2070" width="40" height="30" as="geometry" />
        </mxCell>
        <mxCell id="lkIyx2rpp1lNwBIPfXFg-40" value="" style="rounded=0;whiteSpace=wrap;html=1;" vertex="1" parent="1">
          <mxGeometry x="550" y="2100" width="280" height="30" as="geometry" />
        </mxCell>
        <mxCell id="lkIyx2rpp1lNwBIPfXFg-41" value="Patente" style="text;html=1;align=center;verticalAlign=middle;whiteSpace=wrap;rounded=0;" vertex="1" parent="1">
          <mxGeometry x="550" y="2140" width="40" height="30" as="geometry" />
        </mxCell>
        <mxCell id="lkIyx2rpp1lNwBIPfXFg-42" value="" style="rounded=0;whiteSpace=wrap;html=1;" vertex="1" parent="1">
          <mxGeometry x="550" y="2170" width="280" height="30" as="geometry" />
        </mxCell>
        <mxCell id="lkIyx2rpp1lNwBIPfXFg-43" value="Nível de acesso" style="text;html=1;align=center;verticalAlign=middle;whiteSpace=wrap;rounded=0;" vertex="1" parent="1">
          <mxGeometry x="550" y="2210" width="90" height="30" as="geometry" />
        </mxCell>
        <mxCell id="lkIyx2rpp1lNwBIPfXFg-44" value="" style="ellipse;whiteSpace=wrap;html=1;aspect=fixed;" vertex="1" parent="1">
          <mxGeometry x="555" y="2240" width="10" height="10" as="geometry" />
        </mxCell>
        <mxCell id="lkIyx2rpp1lNwBIPfXFg-45" value="1" style="text;html=1;align=center;verticalAlign=middle;whiteSpace=wrap;rounded=0;" vertex="1" parent="1">
          <mxGeometry x="570" y="2240" width="10" height="10" as="geometry" />
        </mxCell>
        <mxCell id="lkIyx2rpp1lNwBIPfXFg-46" value="" style="ellipse;whiteSpace=wrap;html=1;aspect=fixed;" vertex="1" parent="1">
          <mxGeometry x="555" y="2270" width="10" height="10" as="geometry" />
        </mxCell>
        <mxCell id="lkIyx2rpp1lNwBIPfXFg-47" value="2" style="text;html=1;align=center;verticalAlign=middle;whiteSpace=wrap;rounded=0;" vertex="1" parent="1">
          <mxGeometry x="572.5" y="2270" width="5" height="10" as="geometry" />
        </mxCell>
        <mxCell id="lkIyx2rpp1lNwBIPfXFg-48" value="" style="ellipse;whiteSpace=wrap;html=1;aspect=fixed;" vertex="1" parent="1">
          <mxGeometry x="555" y="2300" width="10" height="10" as="geometry" />
        </mxCell>
        <mxCell id="lkIyx2rpp1lNwBIPfXFg-49" value="3" style="text;html=1;align=center;verticalAlign=middle;whiteSpace=wrap;rounded=0;" vertex="1" parent="1">
          <mxGeometry x="570" y="2300" width="10" height="10" as="geometry" />
        </mxCell>
        <mxCell id="lkIyx2rpp1lNwBIPfXFg-51" value="descrição" style="text;html=1;align=center;verticalAlign=middle;whiteSpace=wrap;rounded=0;" vertex="1" parent="1">
          <mxGeometry x="585" y="2230" width="60" height="30" as="geometry" />
        </mxCell>
        <mxCell id="lkIyx2rpp1lNwBIPfXFg-52" value="descrição" style="text;html=1;align=center;verticalAlign=middle;whiteSpace=wrap;rounded=0;" vertex="1" parent="1">
          <mxGeometry x="585" y="2260" width="60" height="30" as="geometry" />
        </mxCell>
        <mxCell id="lkIyx2rpp1lNwBIPfXFg-53" value="descrição" style="text;html=1;align=center;verticalAlign=middle;whiteSpace=wrap;rounded=0;" vertex="1" parent="1">
          <mxGeometry x="585" y="2290" width="60" height="30" as="geometry" />
        </mxCell>
        <mxCell id="lkIyx2rpp1lNwBIPfXFg-54" value="Confirmar" style="rounded=0;whiteSpace=wrap;html=1;" vertex="1" parent="1">
          <mxGeometry x="650" y="2330" width="90" height="30" as="geometry" />
        </mxCell>
        <mxCell id="lkIyx2rpp1lNwBIPfXFg-55" value="Resetar" style="rounded=0;whiteSpace=wrap;html=1;" vertex="1" parent="1">
          <mxGeometry x="550" y="2330" width="90" height="30" as="geometry" />
        </mxCell>
        <mxCell id="lkIyx2rpp1lNwBIPfXFg-56" value="Resetar" style="rounded=0;whiteSpace=wrap;html=1;" vertex="1" parent="1">
          <mxGeometry x="540" y="1620" width="90" height="30" as="geometry" />
        </mxCell>
      </root>
    </mxGraphModel>
  </diagram>
</mxfile>
